<?xml version="1.0" ?><svg enable-background="new 0 0 64 64" height="64px" version="1.1" viewBox="0 0 64 64" width="64px" xml:space="preserve" xmlns="http://www.w3.org/2000/svg" xmlns:xlink="http://www.w3.org/1999/xlink"><g id="Layer_1"><g><circle cx="32" cy="32" fill="#E0E0D1" r="32"/></g><g opacity="0.2"><path d="M52,44c0,2.209-1.791,4-4,4H16c-2.209,0-4-1.791-4-4V26c0-2.209,1.791-4,4-4h32c2.209,0,4,1.791,4,4V44z" fill="#231F20"/></g><g><path d="M38,17v20H26V17H38 M38,13H26c-2.209,0-4,1.791-4,4v20c0,2.209,1.791,4,4,4h12c2.209,0,4-1.791,4-4V17    C42,14.791,40.209,13,38,13L38,13z" fill="#4F5D73"/></g><g><g><path d="M12,29v13c0,2.209,1.791,4,4,4h32c2.209,0,4-1.791,4-4V29H12z" fill="#C75C5C"/></g></g><g><path d="M36,28v3h-8v-3H36 M36,24h-8c-2.209,0-4,1.791-4,4v3c0,2.209,1.791,4,4,4h8c2.209,0,4-1.791,4-4v-3    C40,25.791,38.209,24,36,24L36,24z" fill="#F5CF87"/></g><g opacity="0.2"><path d="M52,26c0-2.209-1.791-4-4-4H16c-2.209,0-4,1.791-4,4v5h40V26z" fill="#231F20"/></g><g><path d="M52,24c0-2.209-1.791-4-4-4H16c-2.209,0-4,1.791-4,4v5h40V24z" fill="#C75C5C"/></g></g><g id="Layer_2"/></svg>