<?xml version="1.0" ?><!DOCTYPE svg  PUBLIC '-//W3C//DTD SVG 1.1//EN'  'http://www.w3.org/Graphics/SVG/1.1/DTD/svg11.dtd'><svg height="512px" style="enable-background:new 0 0 512 512;" version="1.1" viewBox="0 0 512 512" width="512px" xml:space="preserve" xmlns="http://www.w3.org/2000/svg" xmlns:xlink="http://www.w3.org/1999/xlink"><g id="_x33_18-stack-overflow"><g><rect height="38.789" style="fill:#F48024;" width="181.123" x="128.601" y="389.709"/><polygon points="401.109,26.001 362.998,32.633 393.976,211.583 432.086,204.953   " style="fill:#F48024;"/><polygon points="314.114,336.063 133.761,319.39 130.205,358.032 310.554,374.672   " style="fill:#F48024;"/><polygon points="325.988,285.443 151.072,238.299 141.035,275.753 315.942,322.895   " style="fill:#F48024;"/><polygon points="348.83,241.074 192.826,148.813 173.153,182.226 329.19,274.48   " style="fill:#F48024;"/><polygon points="253.065,85.71 355.14,235.753 387.085,213.911 285.037,63.857   " style="fill:#F48024;"/><polygon points="337.967,457.248 108.587,457.248 108.587,313.496 79.914,313.496 79.914,485.999     366.639,485.999 366.639,313.496 337.967,313.496   " style="fill:#BCBBBB;"/></g></g><g id="Layer_1"/></svg>