<?xml version="1.0" ?><svg data-name="Layer 2" id="Layer_2" viewBox="0 0 512 512" xmlns="http://www.w3.org/2000/svg"><title/><path d="M256,8a248.0676,248.0676,0,0,1,96.5305,476.5142A248.0663,248.0663,0,0,1,159.47,27.4858,246.4391,246.4391,0,0,1,256,8m0-8C114.615,0,0,114.615,0,256S114.615,512,256,512,512,397.385,512,256,397.385,0,256,0Z"/><path d="M216.1055,377.4033a41.6133,41.6133,0,0,1-29.4248-71.0386l45.8789-45.88a6.3516,6.3516,0,0,0,0-8.9707l-45.8789-45.8789a41.6133,41.6133,0,0,1,58.85-58.8506l79.79,79.79a41.6612,41.6612,0,0,1,0,58.85l-79.79,79.7905A41.341,41.341,0,0,1,216.1055,377.4033Zm0-234.8066a33.3924,33.3924,0,0,0-23.7686,9.8452h0a33.6139,33.6139,0,0,0,0,47.5361l45.8789,45.8794a14.3592,14.3592,0,0,1,0,20.2847l-45.8789,45.88a33.6135,33.6135,0,0,0,47.5371,47.5361l79.79-79.79a33.6519,33.6519,0,0,0,0-47.5362l-79.79-79.79A33.3939,33.3939,0,0,0,216.1055,142.5967Zm-26.5967,7.0166h0Z"/></svg>