<?xml version="1.0" ?><svg data-name="Layer 2" id="Layer_2" viewBox="0 0 512 512" xmlns="http://www.w3.org/2000/svg"><title/><path d="M256,8a248.0675,248.0675,0,0,1,96.53,476.5142A248.0663,248.0663,0,0,1,159.47,27.4858,246.4381,246.4381,0,0,1,256,8m0-8C114.6151,0,0,114.615,0,256S114.6151,512,256,512,512,397.385,512,256,397.3849,0,256,0Z"/><path d="M295.8945,377.4033a41.3371,41.3371,0,0,1-29.4238-12.1885l-79.79-79.79a41.6133,41.6133,0,0,1,0-58.8506l79.79-79.79a41.613,41.613,0,0,1,58.8486,58.8506l-45.8789,45.88a6.35,6.35,0,0,0,0,8.97l45.8789,45.88a41.6133,41.6133,0,0,1-29.4248,71.0386Zm0-234.8066a33.3916,33.3916,0,0,0-23.7675,9.8452l-79.79,79.79a33.6141,33.6141,0,0,0,0,47.5362l79.79,79.79a33.6127,33.6127,0,0,0,47.5361,0h0a33.6139,33.6139,0,0,0,0-47.5361l-45.8789-45.88a14.3586,14.3586,0,0,1,0-20.2842l45.8789-45.88a33.6133,33.6133,0,0,0-23.7686-57.3813Z"/></svg>