<svg xmlns="http://www.w3.org/2000/svg" data-name="Layer 1" viewBox="0 0 512 512"><path fill="#f4b844" d="M500.93,426.01v31.85a23.477,23.477,0,0,1-23.48,23.48H364.56a23.477,23.477,0,0,1-23.48-23.48V426.01ZM433.3,453.68a12.3,12.3,0,1,0-12.29,12.29A12.3,12.3,0,0,0,433.3,453.68Z"></path><polygon fill="#00efd1" points="341.08 369.42 341.08 299.07 341.08 250.79 500.93 250.79 500.93 426.01 341.08 426.01 341.08 369.42"></polygon><path fill="#f4b844" d="M435.59,204.68h41.86a23.477,23.477,0,0,1,23.48,23.48v22.63H341.08V228.16a23.477,23.477,0,0,1,23.48-23.48Z"></path><path fill="#00efd1" d="M435.59,30.66V204.68H364.56a23.477,23.477,0,0,0-23.48,23.48v70.91H11.07V30.66Z"></path><path fill="#00efd1" d="M421.01,441.38a12.3,12.3,0,1,1-12.3,12.3A12.3,12.3,0,0,1,421.01,441.38Z"></path><polygon fill="#00acea" points="341.08 299.07 341.08 369.42 279.61 369.42 167.06 369.42 11.07 369.42 11.07 299.07 341.08 299.07"></polygon><polygon fill="#fedb41" points="279.61 369.42 298.36 436.31 148.3 436.31 167.06 369.42 279.61 369.42"></polygon><path fill="#083863" d="M202.646,127.391a6,6,0,0,0-8.4-1.167l-52.22,39.49a6,6,0,0,0,0,9.572l52.22,39.49a6,6,0,1,0,7.238-9.571L155.587,170.5l45.892-34.705A6,6,0,0,0,202.646,127.391Z"></path><path fill="#083863" d="M304.648,165.714l-52.23-39.49a6,6,0,0,0-7.237,9.572l45.9,34.7-45.9,34.7a6,6,0,1,0,7.237,9.572l52.23-39.49a6,6,0,0,0,0-9.572Z"></path><path fill="#083863" d="M233.148,105.987a6.006,6.006,0,0,0-6.831,5.035l-17.83,117.79a6,6,0,0,0,5.035,6.831,6.178,6.178,0,0,0,.905.068,6,6,0,0,0,5.926-5.1l17.83-117.79A6,6,0,0,0,233.148,105.987Z"></path><path fill="#083863" d="M477.45,199H442V30.66c0-3.313-3.1-5.66-6.41-5.66H11.07A5.78,5.78,0,0,0,5,30.66V369.42c0,3.313,2.756,5.58,6.07,5.58H159.146l-15.395,55h-26.9a6,6,0,0,0,0,12H329.81a5.594,5.594,0,0,0,5.19-2.821V457.86A29.294,29.294,0,0,0,364.56,487H477.45A29.284,29.284,0,0,0,507,457.86V228.16A29.3,29.3,0,0,0,477.45,199ZM347,305.07V257H495V420H347Zm148-76.91V245H347V228.16A17.3,17.3,0,0,1,364.56,211H477.45A17.289,17.289,0,0,1,495,228.16ZM17,37H430V199H364.56A29.311,29.311,0,0,0,335,228.16V293H17Zm0,268H335v58H17Zm154.608,70H275.061l15.386,55H156.214Zm158.2,55h-26.9l-15.386-55H335v58.441A6.147,6.147,0,0,0,329.81,430Zm147.64,45H364.56A17.281,17.281,0,0,1,347,457.86V432H495v25.86A17.272,17.272,0,0,1,477.45,475Z"></path><path fill="#083863" d="M401.02,232h39.97a6,6,0,0,0,0-12H401.02a6,6,0,0,0,0,12Z"></path><path fill="#083863" d="M421.01,435.38a18.3,18.3,0,1,0,18.29,18.3A18.32,18.32,0,0,0,421.01,435.38Zm0,24.59a6.3,6.3,0,1,1,6.29-6.29A6.3,6.3,0,0,1,421.01,459.97Z"></path><path fill="#083863" d="M391.32,285h91.59a6,6,0,1,0,0-12H391.32a6,6,0,1,0,0,12Z"></path><path fill="#083863" d="M482.91,302H391.32a6,6,0,1,0,0,12h91.59a6,6,0,1,0,0-12Z"></path><path fill="#083863" d="M482.91,332H391.32a6,6,0,1,0,0,12h91.59a6,6,0,1,0,0-12Z"></path><path fill="#083863" d="M482.91,362H391.32a6,6,0,1,0,0,12h91.59a6,6,0,1,0,0-12Z"></path><path fill="#083863" d="M482.91,392H391.32a6,6,0,1,0,0,12h91.59a6,6,0,1,0,0-12Z"></path><path fill="#083863" d="M372.49,273H359.11a6,6,0,0,0,0,12h13.38a6,6,0,0,0,0-12Z"></path><path fill="#083863" d="M372.49,302H359.11a6,6,0,0,0,0,12h13.38a6,6,0,0,0,0-12Z"></path><path fill="#083863" d="M372.49,332H359.11a6,6,0,0,0,0,12h13.38a6,6,0,0,0,0-12Z"></path><path fill="#083863" d="M372.49,362H359.11a6,6,0,0,0,0,12h13.38a6,6,0,0,0,0-12Z"></path><path fill="#083863" d="M372.49,392H359.11a6,6,0,0,0,0,12h13.38a6,6,0,0,0,0-12Z"></path></svg>