<svg xmlns="http://www.w3.org/2000/svg"  viewBox="0 0 48 48" width="96px" height="96px"><path fill="#74cccf" d="M43.488,37.246c0-4.804,0.214-4.386,0.185-9.82c-0.005-0.871-0.224-5.613-0.128-6.479 c0.238-2.132,0.097-4.285-0.044-6.425c-0.193-2.925,1.408-7.925-1.523-9.643c-1.959-1.148-5.09-0.165-7.177-0.269 c-2.087-0.104-3.755-0.237-5.832-0.011c-5.386,0.587-10.824,0.258-16.238,0.038c-1.975-0.08-4.697-0.339-6.239,0.899 c-1.484,1.191-2.428,3.111-2.4,7.278C4.122,17.087,4.14,19.4,4.118,23.673c-0.008,1.633-0.017,3.266-0.025,4.899 c-0.007,1.317,0.198,2.622,0.219,3.939c0.02,1.225,0.157,5.882,0.259,7.137c0.102,1.254,1.065,2.639,2.196,3.19 c0.482,0.235,1.026,0.303,1.548,0.427c0.98,0.233,7.274-0.203,7.787-0.254c4.804-0.48,4.804,0,9.609,0c1.334,0,5.393-0.027,6.726,0 c3.375,0.069,5.185,0.177,6.246,0C41.566,42.53,43.488,40.128,43.488,37.246"/><path fill="#010101" d="M9.559,43.832c-0.625,0-1.116-0.023-1.359-0.081c-0.129-0.03-0.258-0.058-0.387-0.084 c-0.417-0.087-0.848-0.177-1.264-0.38c-1.295-0.63-2.36-2.177-2.476-3.599c-0.104-1.286-0.242-6.015-0.261-7.17 c-0.01-0.601-0.059-1.2-0.107-1.799c-0.057-0.7-0.116-1.424-0.112-2.15l0.025-4.898c0.021-4.022,0.005-6.306-0.02-10.125 l-0.005-0.729c-0.026-3.9,0.748-6.195,2.587-7.671c1.549-1.244,4.029-1.127,6.021-1.033l2.273,0.097 c4.75,0.203,9.663,0.414,14.441-0.108c1.867-0.204,3.4-0.123,5.174-0.03l0.737,0.038c0.643,0.032,1.415-0.048,2.231-0.132 c1.741-0.181,3.714-0.385,5.173,0.47c2.396,1.405,2.125,4.558,1.885,7.341c-0.085,0.994-0.167,1.933-0.116,2.701 c0.14,2.129,0.286,4.33,0.042,6.514c-0.062,0.561,0.023,3.056,0.08,4.707c0.027,0.792,0.049,1.441,0.051,1.714 c0.015,2.89-0.039,4.155-0.091,5.378c-0.046,1.079-0.094,2.195-0.094,4.444c0,3.172-2.147,5.746-5.222,6.258 c-0.866,0.145-2.143,0.111-4.26,0.056c-0.618-0.016-1.307-0.034-2.079-0.049c-0.958-0.02-3.326-0.012-5.073-0.004l-1.643,0.004 c-1.851,0-2.976-0.069-3.969-0.131c-1.544-0.095-2.661-0.165-5.59,0.128C16.103,43.513,11.897,43.832,9.559,43.832z M10.465,5.059 c-1.383,0-2.774,0.156-3.659,0.867c-1.111,0.892-2.243,2.407-2.213,6.885l0.005,0.729c0.025,3.823,0.041,6.109,0.02,10.136 l-0.025,4.898c-0.003,0.684,0.054,1.386,0.109,2.065c0.05,0.62,0.101,1.241,0.11,1.864c0.018,1.147,0.155,5.837,0.258,7.104 c0.087,1.079,0.93,2.301,1.917,2.781c0.304,0.148,0.657,0.222,1.03,0.3c0.139,0.029,0.277,0.058,0.415,0.091 c0.833,0.197,6.908-0.194,7.621-0.266c3.009-0.301,4.159-0.229,5.751-0.131c0.979,0.061,2.087,0.129,3.907,0.129l1.639-0.004 c1.755-0.006,4.135-0.016,5.097,0.004c0.773,0.016,1.465,0.034,2.084,0.05c2.057,0.053,3.298,0.084,4.07-0.043 c2.583-0.431,4.386-2.598,4.386-5.272c0-2.271,0.048-3.397,0.095-4.487c0.052-1.211,0.106-2.464,0.091-5.331 c-0.001-0.268-0.023-0.906-0.05-1.685c-0.079-2.309-0.14-4.267-0.075-4.852c0.234-2.095,0.092-4.252-0.046-6.337 c-0.056-0.843,0.028-1.819,0.118-2.852c0.225-2.609,0.457-5.307-1.395-6.393c-1.176-0.689-2.898-0.51-4.564-0.337 c-0.854,0.088-1.663,0.172-2.384,0.137l-0.74-0.038C32.305,4.979,30.81,4.9,29.024,5.096c-4.855,0.529-9.805,0.316-14.592,0.113 l-2.277-0.097C11.618,5.086,11.042,5.059,10.465,5.059z"/><path fill="#010101" d="M9.559,43.832c-0.625,0-1.116-0.023-1.359-0.081c-0.129-0.03-0.258-0.058-0.387-0.084	c-0.417-0.087-0.848-0.177-1.264-0.38c-1.295-0.63-2.36-2.177-2.476-3.599c-0.104-1.286-0.242-6.015-0.261-7.17	c-0.01-0.601-0.059-1.2-0.107-1.799c-0.057-0.7-0.116-1.424-0.112-2.15l0.025-4.898c0.021-4.022,0.005-6.306-0.02-10.125	l-0.005-0.729c-0.026-3.9,0.748-6.195,2.587-7.671c1.549-1.244,4.029-1.127,6.021-1.033l2.273,0.097	c4.75,0.203,9.663,0.414,14.441-0.108c1.867-0.204,3.4-0.123,5.174-0.03l0.737,0.038c0.643,0.032,1.415-0.048,2.231-0.132	c1.741-0.181,3.714-0.385,5.173,0.47c2.396,1.405,2.125,4.558,1.885,7.341c-0.085,0.994-0.167,1.933-0.116,2.701	c0.14,2.129,0.286,4.33,0.042,6.514c-0.062,0.561,0.023,3.056,0.08,4.707c0.027,0.792,0.049,1.441,0.051,1.714	c0.015,2.89-0.039,4.155-0.091,5.378c-0.046,1.079-0.094,2.195-0.094,4.444c0,3.172-2.147,5.746-5.222,6.258	c-0.866,0.145-2.143,0.111-4.26,0.056c-0.618-0.016-1.307-0.034-2.079-0.049c-0.958-0.02-3.326-0.012-5.073-0.004l-1.643,0.004	c-1.851,0-2.976-0.069-3.969-0.131c-1.544-0.095-2.661-0.165-5.59,0.128C16.103,43.513,11.897,43.832,9.559,43.832z M10.465,5.059	c-1.383,0-2.774,0.156-3.659,0.867c-1.111,0.892-2.243,2.407-2.213,6.885l0.005,0.729c0.025,3.823,0.041,6.109,0.02,10.136	l-0.025,4.898c-0.003,0.684,0.054,1.386,0.109,2.065c0.05,0.62,0.101,1.241,0.11,1.864c0.018,1.147,0.155,5.837,0.258,7.104	c0.087,1.079,0.93,2.301,1.917,2.781c0.304,0.148,0.657,0.222,1.03,0.3c0.139,0.029,0.277,0.058,0.415,0.091	c0.833,0.197,6.908-0.194,7.621-0.266c3.009-0.301,4.159-0.229,5.751-0.131c0.979,0.061,2.087,0.129,3.907,0.129l1.639-0.004	c1.755-0.006,4.135-0.016,5.097,0.004c0.773,0.016,1.465,0.034,2.084,0.05c2.057,0.053,3.298,0.084,4.07-0.043	c2.583-0.431,4.386-2.598,4.386-5.272c0-2.271,0.048-3.397,0.095-4.487c0.052-1.211,0.106-2.464,0.091-5.331	c-0.001-0.268-0.023-0.906-0.05-1.685c-0.079-2.309-0.14-4.267-0.075-4.852c0.234-2.095,0.092-4.252-0.046-6.337	c-0.056-0.843,0.028-1.819,0.118-2.852c0.225-2.609,0.457-5.307-1.395-6.393c-1.176-0.689-2.898-0.51-4.564-0.337	c-0.854,0.088-1.663,0.172-2.384,0.137l-0.74-0.038C32.305,4.979,30.81,4.9,29.024,5.096c-4.855,0.529-9.805,0.316-14.592,0.113	l-2.277-0.097C11.618,5.086,11.042,5.059,10.465,5.059z"/><path fill="#febf10" d="M12.905,13.537c-2.154,1.255-4.027,2.7-4.313,5.176c-0.21,1.818,0.126,3.846,0.693,5.186	c0.348,0.822,0.94,1.678,1.476,2.392c0.594,0.793,1.49,1.315,2.422,1.652c3.015,1.09,6.476,0.123,8.895-1.982	c2.141-1.863,3.301-5.13,2.211-8.145c-1.09-3.015-3.152-4.818-6.345-5.111C16.642,12.586,14.457,12.708,12.905,13.537"/><path fill="#010101" d="M15.802,28.889c-0.96,0-1.904-0.155-2.79-0.476c-1.171-0.423-2.063-1.037-2.652-1.823	c-0.472-0.63-1.145-1.575-1.536-2.497c-0.648-1.53-0.935-3.665-0.729-5.438c0.315-2.728,2.377-4.279,4.558-5.55l0.017-0.009	c1.623-0.867,3.881-1.02,5.319-0.889c3.296,0.302,5.574,2.132,6.77,5.439c1.076,2.976,0.108,6.55-2.353,8.692	C20.501,27.995,18.104,28.889,15.802,28.889z M13.148,13.974c-2.257,1.316-3.811,2.636-4.061,4.796	c-0.187,1.614,0.072,3.551,0.657,4.934c0.348,0.821,0.974,1.699,1.416,2.287c0.47,0.627,1.207,1.126,2.191,1.482	c2.672,0.965,5.968,0.226,8.397-1.889c2.157-1.877,3.008-5.001,2.069-7.598c-1.067-2.952-3.004-4.516-5.92-4.783	C16.491,13.074,14.484,13.263,13.148,13.974z"/><path fill="#d6e5e5" d="M23.922,35.28c3.142,0.149,6.142-0.022,9.056-0.378c0.54-0.066,1.079-0.145,1.603-0.29	c3.104-0.86,5.248-4.303,4.649-7.468s-3.852-5.587-7.056-5.253c-0.63-1.013-1.745-2.721-2.694-3.445	c-1.735-1.324-3.371-1.944-4.696-1.905c-1.338,0.04-2.549,0.24-3.748,0.834c-1.692,0.839-3.045,2.05-3.845,3.761	c-0.702,1.502-0.977,3.426-0.708,5.063c-0.804-0.258-2.67,0.564-3.273,1.156c-0.603,0.592-0.943,1.401-1.169,2.215	c-0.257,0.925-0.452,1.94-0.118,2.839c0.861,2.319,2.779,2.745,4.924,2.809C19.127,35.287,20.625,35.206,23.922,35.28"/><path fill="#010101" d="M26.208,35.833c-0.775,0-1.542-0.018-2.303-0.054c-1.681-0.037-2.892-0.036-3.98-0.032	c-1.042,0.003-1.975,0.005-3.091-0.029c-2.107-0.063-4.395-0.485-5.378-3.135c-0.388-1.045-0.165-2.177,0.104-3.147	c0.303-1.089,0.716-1.864,1.3-2.438c0.526-0.517,1.953-1.252,3.053-1.338c-0.136-1.583,0.16-3.31,0.826-4.735	c0.798-1.707,2.169-3.052,4.076-3.997c1.14-0.565,2.36-0.839,3.956-0.887c1.518-0.033,3.235,0.65,5.014,2.007	c0.718,0.548,1.587,1.635,2.653,3.32c3.36-0.177,6.656,2.357,7.285,5.683c0.649,3.428-1.644,7.112-5.007,8.043	c-0.564,0.156-1.139,0.238-1.676,0.304C30.65,35.689,28.396,35.833,26.208,35.833z M20.8,34.746c0.878,0,1.875,0.006,3.133,0.034	c0.004,0,0.008,0,0.012,0c2.859,0.135,5.792,0.013,8.973-0.374c0.499-0.061,1.029-0.137,1.53-0.275	c2.833-0.785,4.837-4.006,4.291-6.894c-0.547-2.888-3.593-5.155-6.513-4.849c-0.191,0.014-0.375-0.071-0.476-0.233	c-1.061-1.704-1.926-2.818-2.573-3.312c-1.572-1.199-3.123-1.848-4.378-1.802c-1.444,0.043-2.536,0.284-3.541,0.782	c-1.698,0.842-2.914,2.028-3.614,3.525c-0.663,1.417-0.918,3.245-0.668,4.77c0.028,0.172-0.035,0.346-0.167,0.46	c-0.132,0.113-0.314,0.15-0.479,0.097c-0.543-0.175-2.234,0.51-2.769,1.037c-0.455,0.446-0.784,1.079-1.038,1.992	c-0.227,0.815-0.419,1.754-0.131,2.532c0.731,1.972,2.316,2.419,4.471,2.483c1.105,0.034,2.025,0.032,3.059,0.029	C20.204,34.747,20.495,34.746,20.8,34.746z"/></svg>