<svg xmlns="http://www.w3.org/2000/svg" viewBox="0 0 468.338 468.338"><path fill="#eef6ff" d="M456.644,247.761c-4.333-8.608-4.341-18.794-0.034-27.416 c15.98-31.991,15.654-72.457-4.287-107.242c-21.874-38.156-61.426-59.142-100.407-57.43c-9.922,0.436-19.497-4.081-25.505-11.99 c-19.843-26.122-53.825-43.346-92.418-43.346c-38.682,0-72.73,17.303-92.553,43.526c-6.003,7.941-15.591,12.48-25.538,12.077 c-38.87-1.573-78.253,19.404-100.062,57.447c-20,34.888-20.27,75.491-4.145,107.527c4.333,8.608,4.341,18.794,0.034,27.416 c-15.98,31.991-15.654,72.457,4.287,107.242c21.874,38.156,61.426,59.142,100.407,57.43c9.922-0.436,19.497,4.081,25.505,11.99 c19.843,26.122,53.825,43.346,92.418,43.346c38.682,0,72.73-17.303,92.553-43.526c6.003-7.941,15.591-12.48,25.538-12.077 c38.87,1.573,78.253-19.404,100.062-57.447C472.499,320.4,472.769,279.797,456.644,247.761z"></path><circle cx="64.794" cy="285.265" r="7" fill="#c8eef8"></circle><path fill="#cec4e9" d="M90.048,360.175l7.747,1.642l-8.959,2.541c-4.718,1.338-8.321,5.159-9.38,9.948l-1.661,7.511 l-1.661-7.511c-1.059-4.789-4.662-8.61-9.38-9.948l-8.959-2.541l7.747-1.642c5.016-1.063,8.977-4.907,10.19-9.889l2.063-8.47 l2.063,8.47C81.07,355.268,85.032,359.112,90.048,360.175z"></path><path fill="#ffb9b3" d="M418.481,292.469l7.747,1.642l-8.959,2.541c-4.718,1.338-8.321,5.159-9.38,9.948l-1.661,7.511 l-1.661-7.511c-1.059-4.789-4.662-8.61-9.38-9.948l-8.959-2.541l7.747-1.642c5.016-1.063,8.977-4.907,10.19-9.889l2.063-8.47 l2.063,8.47C409.504,287.562,413.465,291.406,418.481,292.469z"></path><rect width="458" height="238" x="5.169" y="5" fill="#fffbed"></rect><path fill="#cfc1ed" d="M71.496,243H5.235V5h66.261l0,0c16.241,26.509,20.301,59.622,7.713,98.619L71.496,124 l7.713,20.381C90.753,174.886,90.776,209.644,71.496,243L71.496,243z"></path><path fill="#ddd4f2" d="M79.209,144.381L71.496,124l7.713-20.381C91.797,64.623,87.737,31.51,71.496,5l0,0h-17l0,0 c16.241,26.509,20.302,59.622,7.713,98.619L54.496,124l7.713,20.381c11.544,30.505,11.567,65.263-7.712,98.619l0,0.001h17 l0-0.001C90.776,209.644,90.753,174.886,79.209,144.381z"></path><path fill="#cfc1ed" d="M396.832,243h66.261V5h-66.261l0,0c-16.241,26.509-20.301,59.622-7.713,98.619l7.713,20.38 l-7.713,20.381C377.575,174.886,377.552,209.644,396.832,243L396.832,243z"></path><path fill="#ddd4f2" d="M389.119,144.381L396.832,124l-7.713-20.381C376.531,64.623,380.591,31.51,396.832,5l0,0h17l0,0 c-16.241,26.509-20.302,59.622-7.713,98.619L413.832,124l-7.713,20.381c-11.544,30.505-11.567,65.263,7.712,98.619l0,0.001h-17 l0-0.001C377.552,209.644,377.575,174.886,389.119,144.381z"></path><path fill="#9795af" d="M463.169,0h-458c-2.761,0-5,2.238-5,5v238c0,2.762,2.239,5,5,5h458c2.762,0,5-2.238,5-5V5 C468.169,2.238,465.931,0,463.169,0z M384.361,105.155c0.092,0.299,7.023,18.555,7.125,18.845 c-13.534,34.605-25.321,65.964-3.005,114H79.846c22.316-48.061,10.53-79.372-3.005-114c16.76-37.175,20.819-82.138,3.17-114 h308.304C374.235,37.663,372.891,69.624,384.361,105.155z M10.169,238V10H68.65c19.394,30.598,14.912,75.753-1.831,112.23 c-0.432,1.141-0.432,2.398,0,3.539c13.424,34.664,26.019,64.863,1.753,112.23H10.169z M458.169,238h-58.413 c-24.266-47.387-11.673-77.547,1.753-112.23c0.431-1.141,0.431-2.398,0-3.539l-7.669-20.265 c-11.215-34.822-9.248-65.747,5.838-91.966h58.491V238z"></path><rect width="58.77" height="97.148" x="204.784" y="180.142" fill="#fcdeca"></rect><path fill="#ff8a80" d="M263.554,226.764l-0.001,0.003c-7.305,31.229-51.454,31.227-58.755-0.003l0,0h-0.014 c-36.78,0-66.596,30.019-66.596,67.048v76.483H330.15v-76.483C330.15,256.782,300.334,226.764,263.554,226.764 L263.554,226.764z"></path><path fill="#ffa8a4" d="M204.784,241.764h8.275c-3.834-3.751-6.797-8.736-8.261-15v0h-0.014 c-36.78,0-66.596,30.019-66.596,67.048v76.483h15v-76.483C153.188,265.112,176.333,241.764,204.784,241.764z"></path><path fill="#fcdeca" d="M186.038,82.114V155.1c0.093,26.498,21.949,47.93,48.877,47.93l0,0 c26.994,0,48.877-21.534,48.877-48.097V82.114H186.038z"></path><path fill="#989ca3" d="M274.938,60.744c0-12.501-10.196-22.635-22.773-22.635c0,0-96.579-18.996-94.305,81.313 c0.841,37.076,28.106,37.072,28.106,37.072v-42.618h0c15.41-0.045,29.777-7.782,38.277-20.612l4.95-7.472l4.339,5.035 c12.612,14.633,30.99,23.05,50.328,23.05h0v41.488c11.417-1.141,26.706-7.545,26.635-43.494 C310.496,111.87,312.612,61.709,274.938,60.744z"></path><path fill="#f9cdaf" d="M233.533,90.826l-4.339-5.035l-4.95,7.472c-8.501,12.831-22.867,20.567-38.277,20.613v14.998 l0.138,0c17.158-0.076,33.257-7.29,44.653-19.675c14.646,12.598,33.407,19.655,53.019,19.676h0.084v-14.998 C264.522,113.876,246.145,105.459,233.533,90.826z"></path><path fill="#ccced1" d="M180.573,139.396c-6.09-4.076-7.558-13.297-7.717-20.314 c-0.568-25.072,5.665-43.312,18.527-54.211c21.834-18.5,57.199-12.17,57.926-12.036l14.679,2.888l2.477-12.59 c-3.909-3.14-8.882-5.023-14.3-5.023c0,0-96.579-18.996-94.304,81.313c0.841,37.076,28.106,37.072,28.106,37.072v-15h-0.002 C185.941,141.494,183.176,141.14,180.573,139.396z"></path><g><path fill="#90caf9" d="M122.798,296.884l12.635,133.332h197.238l12.865-133.302c1.008-9.98-6.787-18.65-16.769-18.65 H139.571C129.601,278.265,121.809,286.914,122.798,296.884z"></path></g><g><path fill="#b7dcfb" d="M138.223,293.872c0.364-0.402,0.818-0.606,1.348-0.606h204.197v-5.748 c-2.776-5.452-8.401-9.253-15-9.253H139.571c-9.97,0-17.761,8.649-16.773,18.619l12.635,133.333h15.067l-12.776-134.813 C137.667,294.816,137.834,294.301,138.223,293.872z"></path></g><g><ellipse cx="234.169" cy="354.241" fill="#efefef" rx="23.709" ry="23.795"></ellipse></g><g><path fill="#fff" d="M228.46,354.241c0-9.943,6.079-18.458,14.709-22.015c-2.776-1.144-5.813-1.78-9-1.78 c-13.094,0-23.709,10.653-23.709,23.795c0,13.141,10.615,23.795,23.709,23.795c3.187,0,6.224-0.635,9-1.779 C234.539,372.699,228.46,364.184,228.46,354.241z"></path></g><g><path fill="#5b5b7f" d="M234.169,383.036c-15.83,0-28.709-12.917-28.709-28.795s12.879-28.795,28.709-28.795 s28.709,12.917,28.709,28.795S249.999,383.036,234.169,383.036z M234.169,335.446c-10.316,0-18.709,8.432-18.709,18.795 s8.393,18.795,18.709,18.795s18.709-8.432,18.709-18.795S244.485,335.446,234.169,335.446z"></path></g><g><path fill="#a8ef9c" d="M374.148,430.57L374.148,430.57c-1.154-17.043-16.438-29.573-33.356-27.346L168.43,425.917 c-9.711,1.278-16.762,9.883-16.117,19.667v0c0.647,9.808,8.805,17.419,18.624,17.374l173.844-0.787 C361.845,462.093,375.302,447.613,374.148,430.57z"></path><path fill="#dff9d9" d="M342.75,418.097c4.101-0.545,8.125,0.639,11.298,3.321c3.114,2.632,4.888,6.523,5.163,10.591 l0.53,7.829c0.251,3.706,3.459,6.508,7.165,6.257h0c2.744-0.186,5.124-2.015,5.951-4.638 c1.076-3.414,1.549-7.086,1.291-10.887v0c-1.154-17.042-16.438-29.573-33.356-27.345l-150.88,19.864l1.958,14.872 L342.75,418.097z"></path><path fill="#a8ef9c" d="M104.19,431.288L104.19,431.288c1.154-17.043,16.438-29.573,33.356-27.346l172.362,22.692 c9.711,1.278,16.763,9.883,16.117,19.667v0c-0.647,9.808-8.805,17.419-18.624,17.374l-173.844-0.787 C116.493,462.811,103.036,448.331,104.19,431.288z"></path><path fill="#dff9d9" d="M119.127,432.724c0.276-4.072,2.054-7.967,5.174-10.598c3.171-2.674,7.188-3.849,11.287-3.311 l187.234,24.65l0.963-7.316c-2.758-5.038-7.796-8.713-13.878-9.514l-172.362-22.692 c-16.918-2.228-32.202,10.303-33.356,27.345l0,0c-0.257,3.801,0.215,7.473,1.291,10.887c0.827,2.623,3.207,4.452,5.951,4.638 h0c3.706,0.251,6.914-2.55,7.165-6.256L119.127,432.724z"></path><path fill="#fcdeca" d="M309.908,426.634l-26.664-3.51l-0.082,40.442l24.24,0.11 c9.819,0.044,17.977-7.566,18.624-17.374v0C326.67,436.518,319.619,427.913,309.908,426.634z"></path><path fill="#f9cdaf" d="M309.908,426.634l-26.664-3.51l-0.031,15.126l17.456,2.298 c4.785,0.63,9.347,2.405,13.299,5.174l10.337,7.243c0.957-2.042,1.563-4.286,1.719-6.664v0 C326.67,436.518,319.619,427.913,309.908,426.634z"></path></g><g><path fill="#5b5b7f" d="M379.136,430.232c-0.853-19.149-19.375-34.621-38.351-32.033l9.726-100.781 c1.35-11.206-7.121-22.285-18.268-23.871c-8.272-28.335-33.411-49.474-63.689-51.588v-25.601 c11.139-8.808,18.672-21.872,20.011-36.673c17.907-3.779,26.965-19.802,26.931-47.724c0.706-12.688-3.937-52.355-35.954-55.88 c-2.208-12.871-13.393-22.736-26.894-22.968c-45.435-7.737-102.667,11.241-99.787,86.422 c0.721,31.804,19.605,39.504,28.524,41.366c1.558,13.62,8.383,25.695,18.399,34.216v26.842 c-30.278,2.114-55.417,23.253-63.688,51.589c-11.128,1.584-19.591,12.625-18.274,23.814l9.653,101.867 c-15.151,2.56-27.514,16.257-28.273,31.722c-1.755,19.336,14.919,37.293,34.333,36.938l211.27-0.718 C364.219,467.526,380.892,449.568,379.136,430.232z M180.966,113.876v36.665c-1.892-0.59-4.122-1.546-6.333-3.092 c-7.508-5.252-11.47-14.72-11.774-28.141c-2.275-62.488,39.682-83.683,89.306-76.199c9.801,0,17.773,7.911,17.773,17.635 c0,2.712,2.161,4.929,4.872,4.998c8.012,0.205,14.311,2.872,19.257,8.153c20.469,27.1,11.859,71.852-5.206,75.496v-35.516 c0-2.762-2.238-5-5-5c-20.35,0.225-38.772-10.342-50.879-26.35c-1.022-1.185-2.537-1.825-4.103-1.726 c-1.563,0.099-2.988,0.924-3.853,2.229c-7.959,14.568-21.729,26.221-39.075,25.847 C183.195,108.884,180.966,111.12,180.966,113.876z M191.038,155.101l-0.072-36.48c15.995-1.545,30.327-10.737,38.75-24.564 l0.029,0.034c12.484,14.484,30.167,23.289,49.115,24.612l-0.068,36.231c0,23.764-19.684,43.097-43.877,43.097 C210.804,198.03,191.121,178.765,191.038,155.101z M258.554,202.625v23.468c-7.38,25.797-41.43,25.787-48.77-0.051v-24.18 C224.098,209.716,243.959,210.037,258.554,202.625z M201.078,231.875c8.706,23.122,33.097,23.313,33.098,23.313 c12.854,0,27.512-7.248,33.098-23.313c25.196,1.519,46.341,18.371,54.384,41.391H146.681 C154.724,250.245,175.872,233.393,201.078,231.875z M139.571,283.266h189.197c6.868-0.156,12.653,6.349,11.792,13.169 l-9.949,103.087l-94.168,12.398l-98.244-12.934c-0.237-0.031-0.473-0.049-0.71-0.076l-9.713-102.498 C127.766,288.444,136.196,283.266,139.571,283.266z M278.171,458.543l-144.592-0.655c-13.801,0.252-25.649-12.518-24.4-26.263 c0.59-13.777,14.14-24.864,27.714-22.727l141.341,18.608L278.171,458.543z M307.424,458.676l-19.251-0.087l-0.001-0.001 l0.061-29.764l0,0l21.024,2.768c7.076,0.932,12.251,7.248,11.78,14.38c-0.471,7.136-6.417,12.705-13.551,12.704 C307.465,458.676,307.444,458.676,307.424,458.676z M344.759,457.171l-17.081,0.077c1.892-3.131,3.081-6.741,3.337-10.618 c0.816-12.375-8.168-23.335-20.454-24.952l-35.813-4.715l66.697-8.781c13.569-2.133,27.129,8.947,27.715,22.727 C369.623,437.765,366.573,454.657,344.759,457.171z"></path></g></svg>