<?xml version="1.0" ?><svg viewBox="0 0 64 64" xmlns="http://www.w3.org/2000/svg"><defs><style>.cls-1{fill:#fff;}.cls-2{fill:#808285;}.cls-3{fill:#ffae30;}.cls-4{fill:#231f20;}.cls-5{fill:#f22128;}</style></defs><title/><g data-name="10-qq" id="_10-qq"><rect class="cls-1" height="64" rx="11.2" ry="11.2" width="64"/><path class="cls-2" d="M52.8,1.07A10.14,10.14,0,0,1,62.93,11.2V52.8A10.14,10.14,0,0,1,52.8,62.93H11.2A10.14,10.14,0,0,1,1.07,52.8V11.2A10.14,10.14,0,0,1,11.2,1.07H52.8M52.8,0H11.2A11.19,11.19,0,0,0,0,11.2V52.8A11.19,11.19,0,0,0,11.2,64H52.8A11.19,11.19,0,0,0,64,52.8V11.2A11.19,11.19,0,0,0,52.8,0Z"/><path class="cls-3" d="M22,53.91S13.85,56,15.6,58c1.33,1.53,15.93.67,15.93-.33S28.73,53.11,22,53.91Z"/><path class="cls-3" d="M42,53.91S50.15,56,48.4,58c-1.33,1.53-15.93.67-15.93-.33S35.27,53.11,42,53.91Z"/><path class="cls-4" d="M32,58.31c17.07,0,17.35-14.75,17.35-14.75a16.27,16.27,0,0,0,4.32,5,.39.39,0,0,0,.62-.2C56,43,48.77,27.7,48.77,27.7,48.77,3.74,32,5.14,32,5.14S15.23,3.74,15.23,27.7c0,0-7.27,15.32-5.52,20.65a.39.39,0,0,0,.62.2,16.27,16.27,0,0,0,4.32-5S17.07,58.31,32,58.31Z"/><ellipse class="cls-1" cx="27.5" cy="15.94" rx="2.8" ry="4.4" transform="translate(-0.88 1.63) rotate(-3.34)"/><ellipse class="cls-1" cx="36.5" cy="15.94" rx="4.4" ry="2.8" transform="translate(18.46 51.45) rotate(-86.66)"/><path class="cls-3" d="M32,27c4,0,8.36-2.19,9.75-2.95a.4.4,0,0,0,.06-.66c-.82-.66-3.23-1.89-9.81-1.89s-9,1.23-9.81,1.89a.4.4,0,0,0,.06.66C23.64,24.85,28,27,32,27Z"/><ellipse cx="28.7" cy="16.34" rx="1.03" ry="1.7"/><path d="M34.89,17.49a.61.61,0,0,1-.31-.09.6.6,0,0,1-.2-.82,3.15,3.15,0,0,1,2-1.44,2.33,2.33,0,0,1,2,.77.61.61,0,0,1,0,.85.6.6,0,0,1-.85,0,1.2,1.2,0,0,0-1-.44,2,2,0,0,0-1.15.88A.62.62,0,0,1,34.89,17.49Z"/><path class="cls-1" d="M32,56.44c16.87,0,12.43-23.3,12.43-23.3H19.57S15.13,56.44,32,56.44Z"/><path class="cls-5" d="M21.62,43.24V35.48c-3.58-.64-6.8-1.42-8.87-2,1.3-3.32,2.48-5.81,2.48-5.81s0-.13,0-.2c2.78,1,8,2.24,16.76,2.24s14-1.25,16.76-2.24c0,.07,0,.13,0,.2s1.18,2.49,2.48,5.81c-4,1.06-12.38,3-19.25,3-1,0-2,0-3-.11v7.24S23.4,44,21.62,43.24Z"/></g></svg>