<svg xmlns="http://www.w3.org/2000/svg"  viewBox="0 0 100 100" width="100px" height="100px"><path fill="#c7ede6" d="M87.215,56.71C88.35,54.555,89,52.105,89,49.5c0-6.621-4.159-12.257-10.001-14.478	C78.999,35.015,79,35.008,79,35c0-11.598-9.402-21-21-21c-9.784,0-17.981,6.701-20.313,15.757C36.211,29.272,34.638,29,33,29	c-7.692,0-14.023,5.793-14.89,13.252C12.906,43.353,9,47.969,9,53.5C9,59.851,14.149,65,20.5,65c0.177,0,0.352-0.012,0.526-0.022	C21.022,65.153,21,65.324,21,65.5C21,76.822,30.178,86,41.5,86c6.437,0,12.175-2.972,15.934-7.614C59.612,80.611,62.64,82,66,82	c4.65,0,8.674-2.65,10.666-6.518C77.718,75.817,78.837,76,80,76c6.075,0,11-4.925,11-11C91,61.689,89.53,58.727,87.215,56.71z"/><path fill="#fdfcef" d="M79.875,51.5c0,0,3.64,0,6.125,0s4.5-2.015,4.5-4.5c0-2.333-1.782-4.229-4.055-4.455 C86.467,42.364,86.5,42.187,86.5,42c0-2.485-2.015-4.5-4.5-4.5c-1.438,0-2.703,0.686-3.527,1.736 C78.333,36.6,76.171,34.5,73.5,34.5c-2.761,0-5,2.239-5,5c0,0.446,0.077,0.87,0.187,1.282C68.045,40.005,67.086,39.5,66,39.5 c-1.781,0-3.234,1.335-3.455,3.055C62.364,42.533,62.187,42.5,62,42.5c-2.485,0-4.5,2.015-4.5,4.5s2.015,4.5,4.5,4.5s9.5,0,9.5,0 h5.375V52h3V51.5z"/><path fill="#472b29" d="M73.5,34c-3.033,0-5.5,2.467-5.5,5.5c0,0.016,0,0.031,0,0.047C67.398,39.192,66.71,39,66,39 c-1.831,0-3.411,1.261-3.858,3.005C62.095,42.002,62.048,42,62,42c-2.757,0-5,2.243-5,5s2.243,5,5,5h14.875 c0.276,0,0.5-0.224,0.5-0.5s-0.224-0.5-0.5-0.5H62c-2.206,0-4-1.794-4-4s1.794-4,4-4c0.117,0,0.23,0.017,0.343,0.032l0.141,0.019 c0.021,0.003,0.041,0.004,0.062,0.004c0.246,0,0.462-0.185,0.495-0.437C63.232,41.125,64.504,40,66,40 c0.885,0,1.723,0.401,2.301,1.1c0.098,0.118,0.241,0.182,0.386,0.182c0.078,0,0.156-0.018,0.228-0.056 c0.209-0.107,0.314-0.346,0.254-0.573C69.054,40.218,69,39.852,69,39.5c0-2.481,2.019-4.5,4.5-4.5c2.381,0,4.347,1.872,4.474,4.263 c0.011,0.208,0.15,0.387,0.349,0.45c0.05,0.016,0.101,0.024,0.152,0.024c0.15,0,0.296-0.069,0.392-0.192 C79.638,38.563,80.779,38,82,38c2.206,0,4,1.794,4,4c0,0.117-0.017,0.23-0.032,0.343l-0.019,0.141 c-0.016,0.134,0.022,0.268,0.106,0.373c0.084,0.105,0.207,0.172,0.34,0.185C88.451,43.247,90,44.949,90,47c0,2.206-1.794,4-4,4 h-6.125c-0.276,0-0.5,0.224-0.5,0.5s0.224,0.5,0.5,0.5H86c2.757,0,5-2.243,5-5c0-2.397-1.689-4.413-4.003-4.877 C86.999,42.082,87,42.041,87,42c0-2.757-2.243-5-5-5c-1.176,0-2.293,0.416-3.183,1.164C78.219,35.76,76.055,34,73.5,34L73.5,34z"/><path fill="#472b29" d="M72,41c-1.403,0-2.609,0.999-2.913,2.341C68.72,43.119,68.301,43,67.875,43 c-1.202,0-2.198,0.897-2.353,2.068C65.319,45.022,65.126,45,64.938,45c-1.529,0-2.811,1.2-2.918,2.732 C62.01,47.87,62.114,47.99,62.251,48c0.006,0,0.012,0,0.018,0c0.13,0,0.24-0.101,0.249-0.232c0.089-1.271,1.151-2.268,2.419-2.268 c0.229,0,0.47,0.042,0.738,0.127c0.022,0.007,0.045,0.01,0.067,0.01c0.055,0,0.11-0.02,0.156-0.054 C65.962,45.537,66,45.455,66,45.375c0-1.034,0.841-1.875,1.875-1.875c0.447,0,0.885,0.168,1.231,0.473 c0.047,0.041,0.106,0.063,0.165,0.063c0.032,0,0.063-0.006,0.093-0.019c0.088-0.035,0.148-0.117,0.155-0.212 C69.623,42.512,70.712,41.5,72,41.5c0.208,0,0.425,0.034,0.682,0.107c0.023,0.007,0.047,0.01,0.07,0.01 c0.109,0,0.207-0.073,0.239-0.182c0.038-0.133-0.039-0.271-0.172-0.309C72.517,41.04,72.256,41,72,41L72,41z"/><path fill="#472b29" d="M85.883,42.5c-1.326,0-2.508,0.897-2.874,2.182c-0.038,0.133,0.039,0.271,0.172,0.309 C83.205,44.997,83.228,45,83.25,45c0.109,0,0.209-0.072,0.24-0.182C83.795,43.748,84.779,43,85.883,43 c0.117,0,0.23,0.014,0.342,0.029c0.012,0.002,0.023,0.003,0.035,0.003c0.121,0,0.229-0.092,0.246-0.217 c0.019-0.137-0.077-0.263-0.214-0.281C86.158,42.516,86.022,42.5,85.883,42.5L85.883,42.5z"/><path fill="#fff" d="M15.405,51H5.5C5.224,51,5,50.776,5,50.5S5.224,50,5.5,50h9.905c0.276,0,0.5,0.224,0.5,0.5 S15.682,51,15.405,51z"/><path fill="#fff" d="M18.5,51h-1c-0.276,0-0.5-0.224-0.5-0.5s0.224-0.5,0.5-0.5h1c0.276,0,0.5,0.224,0.5,0.5 S18.777,51,18.5,51z"/><path fill="#fff" d="M23.491,53H14.5c-0.276,0-0.5-0.224-0.5-0.5s0.224-0.5,0.5-0.5h8.991c0.276,0,0.5,0.224,0.5,0.5 S23.767,53,23.491,53z"/><path fill="#fff" d="M12.5,53h-1c-0.276,0-0.5-0.224-0.5-0.5s0.224-0.5,0.5-0.5h1c0.276,0,0.5,0.224,0.5,0.5 S12.777,53,12.5,53z"/><path fill="#fff" d="M9.5,53h-2C7.224,53,7,52.776,7,52.5S7.224,52,7.5,52h2c0.276,0,0.5,0.224,0.5,0.5S9.777,53,9.5,53z"/><path fill="#fff" d="M15.5,55h-2c-0.276,0-0.5-0.224-0.5-0.5s0.224-0.5,0.5-0.5h2c0.276,0,0.5,0.224,0.5,0.5 S15.776,55,15.5,55z"/><path fill="#fff" d="M18.5,46c-0.177,0-0.823,0-1,0c-0.276,0-0.5,0.224-0.5,0.5c0,0.276,0.224,0.5,0.5,0.5 c0.177,0,0.823,0,1,0c0.276,0,0.5-0.224,0.5-0.5C19,46.224,18.776,46,18.5,46z"/><path fill="#fff" d="M18.5,48c-0.177,0-4.823,0-5,0c-0.276,0-0.5,0.224-0.5,0.5c0,0.276,0.224,0.5,0.5,0.5 c0.177,0,4.823,0,5,0c0.276,0,0.5-0.224,0.5-0.5C19,48.224,18.776,48,18.5,48z"/><path fill="#fff" d="M23.5,50c-0.177,0-2.823,0-3,0c-0.276,0-0.5,0.224-0.5,0.5c0,0.276,0.224,0.5,0.5,0.5 c0.177,0,2.823,0,3,0c0.276,0,0.5-0.224,0.5-0.5C24,50.224,23.776,50,23.5,50z"/><g><path fill="#fff" d="M72.5,24h-10c-0.276,0-0.5-0.224-0.5-0.5s0.224-0.5,0.5-0.5h10c0.276,0,0.5,0.224,0.5,0.5 S72.776,24,72.5,24z"/><path fill="#fff" d="M76.5,24h-2c-0.276,0-0.5-0.224-0.5-0.5s0.224-0.5,0.5-0.5h2c0.276,0,0.5,0.224,0.5,0.5 S76.776,24,76.5,24z"/><path fill="#fff" d="M81.5,26h-10c-0.276,0-0.5-0.224-0.5-0.5s0.224-0.5,0.5-0.5h10c0.276,0,0.5,0.224,0.5,0.5 S81.777,26,81.5,26z"/><path fill="#fff" d="M69.5,26h-1c-0.276,0-0.5-0.224-0.5-0.5s0.224-0.5,0.5-0.5h1c0.276,0,0.5,0.224,0.5,0.5 S69.776,26,69.5,26z"/><path fill="#fff" d="M66.375,26H64.5c-0.276,0-0.5-0.224-0.5-0.5s0.224-0.5,0.5-0.5h1.875c0.276,0,0.5,0.224,0.5,0.5 S66.651,26,66.375,26z"/><path fill="#fff" d="M75.5,22h-5c-0.276,0-0.5-0.224-0.5-0.5s0.224-0.5,0.5-0.5h5c0.276,0,0.5,0.224,0.5,0.5 S75.777,22,75.5,22z"/><path fill="#fff" d="M72.5,28h-2c-0.276,0-0.5-0.224-0.5-0.5s0.224-0.5,0.5-0.5h2c0.276,0,0.5,0.224,0.5,0.5 S72.776,28,72.5,28z"/></g><g><path fill="#2ed2ff" d="M66.14,68.104l-8.749,5.326c-6.887,4.158-15.846,1.843-19.856-5.13l0,0 c-0.678-1.179-1.035-2.516-1.035-3.876V62.5c0,3.314,2.186,6,5.5,6c2.488,0,5.006-1.648,6.5-2.55l16.823-10.158 c1.375,0.475,2.387,1.124,3.156,2.386c0.676,1.11,1.006,2.641,1.021,3.853C69.53,64.424,68.332,66.77,66.14,68.104z"/><path fill="#4fbcf3" d="M53,63.23v11.94c-1.33,0.29-2.67,0.39-4,0.29v-9.81L53,63.23z"/><path fill="#55a7f9" d="M57,60.81v12.84c-1.28,0.72-2.63,1.23-4,1.52V63.23L57,60.81z"/><path fill="#4792dd" d="M61,58.4v12.83l-3.61,2.2c-0.13,0.08-0.26,0.15-0.39,0.22V60.81L61,58.4z"/><polygon fill="#2d80d3" points="65,55.99 65,68.8 61,71.23 61,58.4"/><path fill="#1e65d6" d="M68.479,58.178c-0.769-1.263-1.781-1.911-3.156-2.386L65,55.987l0,12.811l1.14-0.694 c2.192-1.334,3.39-3.681,3.36-6.073C69.485,60.819,69.155,59.289,68.479,58.178z"/><path fill="#472b29" d="M50.005,76.003c-1.248,0-2.504-0.159-3.746-0.479c-3.898-1.007-7.15-3.484-9.158-6.975 C36.381,67.296,36,65.87,36,64.424V62.5c0-0.276,0.224-0.5,0.5-0.5s0.5,0.224,0.5,0.5c0,3.187,2.103,5.5,5,5.5 c2.175,0,4.426-1.372,5.915-2.28l0.327-0.199l16.823-10.158c0.127-0.076,0.283-0.092,0.421-0.044 c1.631,0.563,2.654,1.341,3.42,2.599c0.785,1.289,1.08,2.966,1.094,4.106c0.033,2.641-1.347,5.134-3.6,6.506l-8.749,5.326 C55.301,75.276,52.674,76.003,50.005,76.003z M37.408,66.826c0.148,0.423,0.335,0.833,0.561,1.225 c1.872,3.255,4.905,5.565,8.541,6.505c3.635,0.939,7.409,0.388,10.624-1.553l8.747-5.325l0.26,0.427l-0.26-0.427 c1.954-1.189,3.149-3.35,3.121-5.639c-0.016-1.267-0.388-2.679-0.949-3.599c-0.609-1.001-1.393-1.619-2.673-2.096L48.436,66.574 C46.851,67.54,44.456,69,42,69C40.099,69,38.482,68.183,37.408,66.826z"/><g><path fill="#58ddd6" d="M66.14,68.104c2.192-1.334,3.39-3.681,3.36-6.073c-0.015-1.212-0.345-2.742-1.021-3.853 c-0.769-1.263-1.781-1.911-3.156-2.386c-2.615-0.903-2.963-1.023-6.345-2.186c-1.133-0.389-2.035-1.267-2.452-2.389l-3.297-8.86 c-0.668-1.794,1.199-3.483,2.918-2.64L65,44.064c4.456,2.319,7.5,6.98,7.5,12.351c0,4.754-2.384,8.95-6.021,11.46L66.14,68.104z"/><path fill="#58ddd6" d="M72.5,56.41c0,4.57-2.2,8.62-5.6,11.15c1.71-1.37,2.63-3.44,2.6-5.53 c-0.01-1.21-0.34-2.74-1.02-3.85c-0.77-1.26-1.78-1.91-3.16-2.39c-0.19-0.07-0.37-0.13-0.54-0.19c-1.65-0.56-2.34-0.8-4-1.37 c-0.5-0.18-1.08-0.38-1.8-0.62c-0.76-0.26-1.42-0.75-1.89-1.38c-0.24-0.3-0.43-0.64-0.56-1.01l-1.54-4.14l-1.76-4.72 c-0.67-1.8,1.2-3.49,2.92-2.64l2.02,0.99l3.76,1.84L65,44.06c0.23,0.12,0.46,0.25,0.68,0.38c1.25,0.74,2.36,1.66,3.31,2.74 C71.18,49.64,72.5,52.87,72.5,56.41z"/><path fill="#33d7e1" d="M68.99,47.18l-4.21,8.42c-2.14-0.73-2.67-0.92-5.8-1.99c-1.13-0.39-2.04-1.27-2.45-2.39l-3.3-8.86 c-0.67-1.8,1.2-3.49,2.92-2.64L65,44.06C66.52,44.85,67.87,45.91,68.99,47.18z"/><path fill="#21caf1" d="M65.68,44.44l-4.9,9.79c-0.5-0.18-1.08-0.38-1.8-0.62c-1.13-0.39-2.04-1.27-2.45-2.39l-3.3-8.86 c-0.67-1.8,1.2-3.49,2.92-2.64L65,44.06C65.23,44.18,65.46,44.31,65.68,44.44z"/><path fill="#31c0fa" d="M61.93,42.55l-4.84,9.68c-0.24-0.3-0.43-0.64-0.56-1.01l-3.3-8.86c-0.67-1.8,1.2-3.49,2.92-2.64 L61.93,42.55z"/><path fill="#39b2f7" d="M58.17,40.71l-3.18,6.37l-1.76-4.72c-0.67-1.8,1.2-3.49,2.92-2.64L58.17,40.71z"/><path fill="#472b29" d="M66.141,68.604c-0.165,0-0.326-0.082-0.421-0.23c-0.146-0.229-0.084-0.532,0.141-0.684l0.339-0.229 c0.106-0.074,0.212-0.149,0.316-0.225c1.574-1.24,2.511-3.169,2.485-5.198c-0.016-1.267-0.388-2.679-0.949-3.599 c-0.643-1.057-1.481-1.687-2.892-2.174c-2.615-0.903-2.963-1.023-6.345-2.186c-1.281-0.44-2.287-1.419-2.759-2.688l-3.296-8.86 c-0.382-1.026-0.115-2.12,0.697-2.854c0.812-0.734,1.927-0.891,2.91-0.409l8.853,4.346c4.803,2.499,7.78,7.402,7.78,12.8 c0,4.592-2.189,8.901-5.878,11.616c-0.229,0.18-0.47,0.347-0.722,0.5C66.319,68.581,66.229,68.604,66.141,68.604z M55.21,39.995 c-0.439,0-0.823,0.19-1.082,0.424c-0.394,0.356-0.713,1.006-0.431,1.764l3.296,8.86c0.367,0.986,1.149,1.748,2.146,2.091 c3.383,1.162,3.731,1.282,6.346,2.186c1.631,0.563,2.654,1.341,3.42,2.599c0.785,1.289,1.08,2.966,1.094,4.106 c0.007,0.583-0.054,1.158-0.179,1.716C71.223,61.591,72,59.053,72,56.415c0-5.023-2.771-9.586-7.231-11.908l-8.842-4.34 C55.679,40.045,55.438,39.995,55.21,39.995z"/></g><g><path fill="#55a7f9" d="M36.5,24.218c0-1.375,1.533-2.196,2.677-1.433l7.542,5.028c1.113,0.742,1.781,1.991,1.781,3.328 V65.95c-1.494,0.902-4.012,2.55-6.5,2.55c-3.314,0-5.5-2.686-5.5-6V24.218z"/><path fill="#4792dd" d="M36.5,29l12,8v28.95c-1.494,0.902-4.012,2.55-6.5,2.55c-3.314,0-5.5-2.761-5.5-6.075V29z"/><path fill="#2d80d3" d="M36.5,36l12,8v21.95c-1.494,0.902-4.012,2.55-6.5,2.55c-3.314,0-5.5-2.761-5.5-6.075V36z"/><path fill="#1e65d6" d="M36.5,43l12,8v14.95c-1.494,0.902-4.012,2.55-6.5,2.55c-3.314,0-5.5-2.761-5.5-6.075V43z"/><path fill="#355ca8" d="M36.5,50l12,8v7.95c-1.494,0.902-4.012,2.55-6.5,2.55c-3.314,0-5.5-2.761-5.5-6.075V50z"/><path fill="#472b29" d="M42,69c-3.477,0-6-2.734-6-6.5V24.218c0-0.834,0.439-1.566,1.174-1.959 c0.734-0.392,1.586-0.351,2.279,0.109l7.543,5.029C48.251,28.232,49,29.632,49,31.141v35.089l-0.479,0.293 C46.898,67.511,44.453,69,42,69z M38.224,22.993c-0.197,0-0.394,0.049-0.578,0.147C37.241,23.356,37,23.759,37,24.218V62.5 c0,3.187,2.103,5.5,5,5.5c2.172,0,4.382-1.346,5.996-2.329L48,65.669V31.141c0-1.173-0.583-2.262-1.559-2.912L38.899,23.2 C38.691,23.062,38.458,22.993,38.224,22.993z"/></g></g><g><path fill="#fdfcef" d="M36.5,71.5c0,0,1.567,0,3.5,0s3.5-1.567,3.5-3.5c0-1.781-1.335-3.234-3.055-3.455 C40.473,64.366,40.5,64.187,40.5,64c0-1.933-1.567-3.5-3.5-3.5c-1.032,0-1.95,0.455-2.59,1.165 c-0.384-1.808-1.987-3.165-3.91-3.165c-2.209,0-4,1.791-4,4c0,0.191,0.03,0.374,0.056,0.558C26.128,62.714,25.592,62.5,25,62.5 c-1.228,0-2.245,0.887-2.455,2.055C22.366,64.527,22.187,64.5,22,64.5c-1.933,0-3.5,1.567-3.5,3.5s1.567,3.5,3.5,3.5s7.5,0,7.5,0 V72h7V71.5z"/><path fill="#472b29" d="M38.25,67C38.112,67,38,66.888,38,66.75c0-1.223,0.995-2.218,2.218-2.218 c0.034,0.009,0.737-0.001,1.244,0.136c0.133,0.036,0.212,0.173,0.176,0.306c-0.036,0.134-0.173,0.213-0.306,0.176 c-0.444-0.12-1.1-0.12-1.113-0.118c-0.948,0-1.719,0.771-1.719,1.718C38.5,66.888,38.388,67,38.25,67z M31.5,71 c-0.276,0-0.5,0.224-0.5,0.5s0.224,0.5,0.5,0.5s0.5-0.224,0.5-0.5S31.776,71,31.5,71z"/><path fill="#472b29" d="M40,72h-3.5c-0.276,0-0.5-0.224-0.5-0.5s0.224-0.5,0.5-0.5H40c1.654,0,3-1.346,3-3 c0-1.496-1.125-2.768-2.618-2.959c-0.134-0.018-0.255-0.088-0.336-0.196s-0.115-0.244-0.094-0.377C39.975,64.314,40,64.16,40,64 c0-1.654-1.346-3-3-3c-0.85,0-1.638,0.355-2.219,1c-0.125,0.139-0.321,0.198-0.5,0.148c-0.182-0.049-0.321-0.195-0.36-0.379 C33.58,60.165,32.141,59,30.5,59c-1.93,0-3.5,1.57-3.5,3.5c0,0.143,0.021,0.28,0.041,0.418c0.029,0.203-0.063,0.438-0.242,0.54 s-0.396,0.118-0.556-0.01C25.878,63.155,25.449,63,25,63c-0.966,0-1.792,0.691-1.963,1.644c-0.048,0.267-0.296,0.446-0.569,0.405 C22.314,65.025,22.16,65,22,65c-1.654,0-3,1.346-3,3s1.346,3,3,3h7.5c0.276,0,0.5,0.224,0.5,0.5S29.776,72,29.5,72H22 c-2.206,0-4-1.794-4-4s1.794-4,4-4c0.059,0,0.116,0.002,0.174,0.006C22.588,62.82,23.711,62,25,62c0.349,0,0.689,0.061,1.011,0.18 C26.176,59.847,28.126,58,30.5,58c1.831,0,3.466,1.127,4.153,2.774C35.333,60.276,36.155,60,37,60c2.206,0,4,1.794,4,4 c0,0.048-0.001,0.095-0.004,0.142C42.739,64.59,44,66.169,44,68C44,70.206,42.206,72,40,72z"/><path fill="#472b29" d="M34.5,71c-0.159,0-0.841,0-1,0c-0.276,0-0.5,0.224-0.5,0.5s0.224,0.5,0.5,0.5c0.159,0,0.841,0,1,0 c0.276,0,0.5-0.224,0.5-0.5S34.776,71,34.5,71z"/></g></svg>