<svg xmlns="http://www.w3.org/2000/svg"  viewBox="0 0 64 64" width="128px" height="128px"><path fill="#f9dd8f" d="M3 31H61V55H3z"/><path fill="#efc88e" d="M3 51H61V55H3zM3 31H61V35H3z"/><path fill="#ed7899" d="M9.83,14.17,4.17,19.83A4,4,0,0,0,3,22.66V29a2,2,0,0,0,2,2H59a2,2,0,0,0,2-2V22.66a4,4,0,0,0-1.17-2.83l-5.66-5.66A4,4,0,0,0,51.34,13H12.66A4,4,0,0,0,9.83,14.17Z"/><path fill="#f283a5" d="M58,18l-3.83-3.83A4,4,0,0,0,51.34,13H12.66a4,4,0,0,0-2.83,1.17L6,18Z"/><path fill="#c2cde7" d="M43 29H51V35H43zM13 29H21V35H13z"/><path fill="#8d6c9f" d="M60.54,19.12l-2.83-2.83h0l-2.83-2.83A5,5,0,0,0,51.34,12H42V10.83a3,3,0,0,0-.88-2.12L39.29,6.88A3,3,0,0,0,37.17,6H26.83a3,3,0,0,0-2.12.88L22.88,8.71A3,3,0,0,0,22,10.83V12H12.66a5,5,0,0,0-3.54,1.46L6.29,16.29h0L3.46,19.12A5,5,0,0,0,2,22.66V53a3,3,0,0,0,3,3H59a3,3,0,0,0,3-3V22.66A5,5,0,0,0,60.54,19.12ZM24,10.83a1,1,0,0,1,.29-.71l1.83-1.83A1,1,0,0,1,26.83,8H37.17a1,1,0,0,1,.71.29l1.83,1.83a1,1,0,0,1,.29.71V12H24ZM4.88,20.54l1.19-1.19A1,1,0,0,0,8,19V17.41l2.54-2.54A3,3,0,0,1,12.66,14H51.34a3,3,0,0,1,2.12.88L56,17.41V19a1,1,0,0,0,1.93.34l1.19,1.19A3,3,0,0,1,60,22.66V30H52a2,2,0,0,0-2-2H44a2,2,0,0,0-2,2H22a2,2,0,0,0-2-2H14a2,2,0,0,0-2,2H4V22.66A3,3,0,0,1,4.88,20.54ZM50,34H44V30h6ZM20,34H14V30h6ZM60,53a1,1,0,0,1-1,1H5a1,1,0,0,1-1-1V32h8v2a2,2,0,0,0,2,2h6a2,2,0,0,0,2-2V32H42v2a2,2,0,0,0,2,2h6a2,2,0,0,0,2-2V32h8Z"/><path fill="#8d6c9f" d="M17 20a1 1 0 0 0 1-1V17a1 1 0 0 0-2 0v2A1 1 0 0 0 17 20zM12 20a1 1 0 0 0 1-1V17a1 1 0 0 0-2 0v2A1 1 0 0 0 12 20zM32 20a1 1 0 0 0 1-1V17a1 1 0 0 0-2 0v2A1 1 0 0 0 32 20zM22 20a1 1 0 0 0 1-1V17a1 1 0 0 0-2 0v2A1 1 0 0 0 22 20zM27 20a1 1 0 0 0 1-1V17a1 1 0 0 0-2 0v2A1 1 0 0 0 27 20zM37 20a1 1 0 0 0 1-1V17a1 1 0 0 0-2 0v2A1 1 0 0 0 37 20zM52 20a1 1 0 0 0 1-1V17a1 1 0 0 0-2 0v2A1 1 0 0 0 52 20zM42 20a1 1 0 0 0 1-1V17a1 1 0 0 0-2 0v2A1 1 0 0 0 42 20zM47 20a1 1 0 0 0 1-1V17a1 1 0 0 0-2 0v2A1 1 0 0 0 47 20zM49 50H7a1 1 0 0 0 0 2H49a1 1 0 0 0 0-2zM52 51a1 1 0 0 0 1 1h4a1 1 0 0 0 0-2H53A1 1 0 0 0 52 51z"/></svg>