<svg xmlns="http://www.w3.org/2000/svg" viewBox="0 0 64 64"><radialGradient id="mC0dhD1NzDUmMI2_S3tzMa" cx="32" cy="32.5" r="30.776" gradientTransform="matrix(1 0 0 -1 0 64)" gradientUnits="userSpaceOnUse"><stop offset="0" stop-color="#9ceeff"></stop><stop offset=".642" stop-color="#c5f5ff"></stop><stop offset="1" stop-color="#dcf9ff"></stop></radialGradient><path fill="url(#mC0dhD1NzDUmMI2_S3tzMa)" d="M60.302,54H57c-1.657,0-3-1.343-3-3l0,0c0-1.657,1.343-3,3-3h0.307	c2.35,0,4.449-1.719,4.672-4.058C62.235,41.258,60.131,39,57.5,39h-0.858c-1.308,0-2.499-0.941-2.629-2.242	C53.863,35.261,55.034,34,56.5,34h3c2.631,0,4.735-2.258,4.479-4.942C63.756,26.718,61.657,25,59.307,25H52v-6h6.5	c2.138,0,3.829-1.918,3.445-4.127C61.649,13.166,60.034,12,58.302,12h-5.659c-1.308,0-2.5-0.941-2.63-2.243	C49.863,8.261,51.034,7,52.5,7h1.857c1.308,0,2.5-0.941,2.63-2.242C57.137,3.261,55.966,2,54.5,2H31H8.698	C6.966,2,5.351,3.166,5.055,4.873C4.671,7.082,6.362,9,8.5,9h0.389c1.451,0,2.781,0.981,3.054,2.406C12.311,13.323,10.851,15,9,15	H5.694c-2.35,0-4.449,1.718-4.672,4.058C0.765,21.742,2.869,24,5.5,24h1.389c1.451,0,2.781,0.981,3.054,2.406	C10.311,28.323,8.851,30,7,30H4.693c-2.35,0-4.449,1.718-4.672,4.058C-0.235,36.742,1.869,39,4.5,39h4c1.381,0,2.5,1.119,2.5,2.5V44	H7.172c-2.089,0-3.955,1.527-4.153,3.607C2.791,49.993,4.661,52,7,52h1.5c0.828,0,1.5,0.672,1.5,1.5l0,0c0,0.828-0.672,1.5-1.5,1.5	H3.111c-1.451,0-2.781,0.981-3.054,2.406C-0.311,59.323,1.149,61,3,61h8h5h44.5c1.995,0,3.601-1.67,3.495-3.688	C63.896,55.419,62.197,54,60.302,54z"></path><linearGradient id="mC0dhD1NzDUmMI2_S3tzMb" x1="32.746" x2="31.406" y1="27.451" y2="12.718" gradientTransform="matrix(1 0 0 -1 0 64)" gradientUnits="userSpaceOnUse"><stop offset="0" stop-color="#00d772"></stop><stop offset=".428" stop-color="#00ca71"></stop><stop offset="1" stop-color="#00b26e"></stop></linearGradient><path fill="url(#mC0dhD1NzDUmMI2_S3tzMb)" d="M32.181,36h-0.362C26.948,36,23,39.948,23,44.819V45c0,1.105,0.895,2,2,2h14	c1.105,0,2-0.895,2-2v-0.181C41,39.948,37.052,36,32.181,36z"></path><linearGradient id="mC0dhD1NzDUmMI2_S3tzMc" x1="32" x2="32" y1="17.216" y2="22.241" gradientTransform="matrix(1 0 0 -1 0 64)" gradientUnits="userSpaceOnUse"><stop offset="0" stop-color="#fdc462"></stop><stop offset=".004" stop-color="#fdc462"></stop><stop offset=".609" stop-color="#fdc380"></stop><stop offset="1" stop-color="#fdc28f"></stop><stop offset="1" stop-color="#fdc28f"></stop></linearGradient><path fill="url(#mC0dhD1NzDUmMI2_S3tzMc)" d="M24.35,26.8c0-4.225,3.425-8.1,7.65-8.1s7.65,3.875,7.65,8.1S36.225,34,32,34	S24.35,31.025,24.35,26.8z"></path><linearGradient id="mC0dhD1NzDUmMI2_S3tzMd" x1="31.981" x2="32.211" y1="37.687" y2="48.104" gradientTransform="matrix(1 0 0 -1 0 64)" gradientUnits="userSpaceOnUse"><stop offset="0" stop-color="#e1714d"></stop><stop offset=".25" stop-color="#e2754e"></stop><stop offset="1" stop-color="#e47b50"></stop></linearGradient><path fill="url(#mC0dhD1NzDUmMI2_S3tzMd)" d="M38.785,17.8c-4.165,0-4.592-1.8-8.329-1.8c-3.124,0-5.206,1.612-5.206,3.6	c0,0.455,0.165,0.888,0.454,1.288C24.87,21.705,24.35,22.84,24.35,24.1v2.7c1.083,0,2.052-0.672,2.432-1.685l1.014-2.704	c1.158,0.493,2.624,0.789,4.222,0.789c1.663,0,3.053-0.328,4.175-0.82l1.026,2.735c0.38,1.014,1.349,1.685,2.432,1.685v-2.7	c0-1.223-0.492-2.33-1.284-3.141C39.916,19.475,40.066,17.8,38.785,17.8z"></path><linearGradient id="mC0dhD1NzDUmMI2_S3tzMe" x1="35.693" x2="35.693" y1=".367" y2="69.732" gradientTransform="matrix(1 0 0 -1 0 64)" gradientUnits="userSpaceOnUse"><stop offset="0" stop-color="#005ce2"></stop><stop offset=".278" stop-color="#0080e8"></stop><stop offset=".569" stop-color="#009ced"></stop><stop offset=".82" stop-color="#00b0f1"></stop><stop offset="1" stop-color="#00b5f2"></stop></linearGradient><path fill="url(#mC0dhD1NzDUmMI2_S3tzMe)" d="M58.94,28h-3.134C54.324,16.178,44.217,7,32,7c-8.54,0-16.506,4.597-20.787,11.996	c-0.553,0.956-0.227,2.18,0.729,2.733c0.955,0.554,2.18,0.227,2.733-0.729C18.244,14.832,24.883,11,32,11	c10.006,0,18.295,7.394,19.75,17h-2.69c-1.296,0-1.982,1.532-1.119,2.499l4.567,5.116c0.795,0.891,2.189,0.891,2.984,0l4.567-5.116	C60.922,29.532,60.236,28,58.94,28z"></path><linearGradient id="mC0dhD1NzDUmMI2_S3tzMf" x1="28.307" x2="28.307" y1="-1.633" y2="67.732" gradientTransform="matrix(1 0 0 -1 0 64)" gradientUnits="userSpaceOnUse"><stop offset="0" stop-color="#005ce2"></stop><stop offset=".278" stop-color="#0080e8"></stop><stop offset=".569" stop-color="#009ced"></stop><stop offset=".82" stop-color="#00b0f1"></stop><stop offset="1" stop-color="#00b5f2"></stop></linearGradient><path fill="url(#mC0dhD1NzDUmMI2_S3tzMf)" d="M52.058,42.271c-0.957-0.553-2.179-0.227-2.733,0.729C45.756,49.168,39.117,53,32,53	c-10.006,0-18.295-7.394-19.75-17h2.69c1.296,0,1.982-1.532,1.119-2.499l-4.567-5.116c-0.795-0.891-2.189-0.891-2.984,0	l-4.567,5.116C3.078,34.468,3.764,36,5.06,36h3.134C9.676,47.822,19.783,57,32,57c8.54,0,16.506-4.597,20.787-11.996	C53.34,44.048,53.014,42.824,52.058,42.271z"></path></svg>